<svg width="100" height="100" viewBox="0 0 100 100" fill="none" xmlns="http://www.w3.org/2000/svg">
<g clip-path="url(#clip0_230_2)">
<path d="M58.3332 33.3334H19.4443C18.7076 33.3334 18.001 33.0407 17.4801 32.5198C16.9592 31.9988 16.6665 31.2923 16.6665 30.5556V19.4445C16.6665 18.7078 16.9592 18.0012 17.4801 17.4803C18.001 16.9593 18.7076 16.6667 19.4443 16.6667H58.3332C59.0699 16.6667 59.7764 16.9593 60.2974 17.4803C60.8183 18.0012 61.1109 18.7078 61.1109 19.4445V30.5556C61.1109 31.2923 60.8183 31.9988 60.2974 32.5198C59.7764 33.0407 59.0699 33.3334 58.3332 33.3334ZM22.2221 27.7778H55.5554V22.0556H22.2221V27.7778Z" fill="white"/>
<path d="M58.3332 39.1111H19.4443C18.7076 39.1111 18.001 39.4037 17.4801 39.9247C16.9592 40.4456 16.6665 41.1521 16.6665 41.8889V52.7778C16.6665 53.5145 16.9592 54.221 17.4801 54.7419C18.001 55.2629 18.7076 55.5555 19.4443 55.5555H50.9998L61.1109 45.2777V41.8889C61.1109 41.1521 60.8183 40.4456 60.2974 39.9247C59.7764 39.4037 59.0699 39.1111 58.3332 39.1111ZM55.5554 50H22.2221V44.4444H55.5554V50Z" fill="white"/>
<path d="M30.7223 87.5278V87.3611L31.6112 83.5H11.1112V11.1111H66.6668V39.5833L72.2223 34.3333V8.33332C72.2223 7.59661 71.9297 6.89007 71.4087 6.36913C70.8878 5.8482 70.1813 5.55554 69.4446 5.55554H8.33344C7.59673 5.55554 6.89019 5.8482 6.36926 6.36913C5.84832 6.89007 5.55566 7.59661 5.55566 8.33332V86.1111C5.55566 86.8478 5.84832 87.5543 6.36926 88.0753C6.89019 88.5962 7.59673 88.8889 8.33344 88.8889H30.5557C30.5786 88.4318 30.6343 87.9769 30.7223 87.5278Z" fill="white"/>
<path d="M61.111 53.25L58.9443 55.4444C59.4819 55.3336 59.9746 55.0661 60.3602 54.6755C60.7458 54.2849 61.007 53.7889 61.111 53.25Z" fill="white"/>
<path d="M16.6665 74.8333C16.6665 75.57 16.9592 76.2766 17.4801 76.7975C18.001 77.3184 18.7076 77.6111 19.4443 77.6111H32.8887L33.7221 74L34.0832 72.4722V72.3333H22.2221V66.6666H39.8332L45.3887 61.1111H19.4443C18.7076 61.1111 18.001 61.4037 17.4801 61.9247C16.9592 62.4456 16.6665 63.1521 16.6665 63.8889V74.8333Z" fill="white"/>
<path d="M93.0278 46.3056L83.6667 36.9445C83.2513 36.5279 82.7577 36.1974 82.2143 35.9718C81.6709 35.7463 81.0884 35.6302 80.5 35.6302C79.9117 35.6302 79.3291 35.7463 78.7858 35.9718C78.2424 36.1974 77.7488 36.5279 77.3334 36.9445L39.25 75.25L36.1111 88.6111C35.9936 89.1875 35.991 89.7815 36.1034 90.3589C36.2158 90.9364 36.441 91.486 36.7661 91.9762C37.0912 92.4665 37.5099 92.8878 37.9981 93.216C38.4863 93.5442 39.0344 93.7729 39.6111 93.8889C39.8975 93.9177 40.1859 93.9177 40.4723 93.8889C40.8126 93.9444 41.1597 93.9444 41.5 93.8889L54.9723 90.9167L93.0278 52.7778C93.4435 52.3647 93.7735 51.8735 93.9986 51.3324C94.2238 50.7913 94.3397 50.2111 94.3397 49.625C94.3397 49.039 94.2238 48.4587 93.9986 47.9176C93.7735 47.3765 93.4435 46.8853 93.0278 46.4722V46.3056ZM52.1389 85.8611L41.9723 88.1111L44.4445 78.0278L73 49.1667L80.8334 57L52.1389 85.8611ZM83.9722 53.8611L76.1389 46.0278L80.5556 41.6667L88.4445 49.5556L83.9722 53.8611Z" fill="white"/>
</g>
<defs>
<clipPath id="clip0_230_2">
<rect width="100" height="100" fill="white"/>
</clipPath>
</defs>
</svg>
