<svg width="500" height="137" viewBox="0 0 500 137" fill="none" xmlns="http://www.w3.org/2000/svg">
<circle cx="13" cy="68" r="13" fill="black"/>
<circle cx="56" cy="33" r="13" fill="black"/>
<circle cx="56" cy="106" r="13" fill="black"/>
<path d="M113.84 65.128C113.84 66.12 113.776 67.016 113.648 67.816H93.44C93.6 69.928 94.384 71.624 95.792 72.904C97.2 74.184 98.928 74.824 100.976 74.824C103.92 74.824 106 73.592 107.216 71.128H113.12C112.32 73.56 110.864 75.56 108.752 77.128C106.672 78.664 104.08 79.432 100.976 79.432C98.448 79.432 96.176 78.872 94.16 77.752C92.176 76.6 90.608 75 89.456 72.952C88.336 70.872 87.776 68.472 87.776 65.752C87.776 63.032 88.32 60.648 89.408 58.6C90.528 56.52 92.08 54.92 94.064 53.8C96.08 52.68 98.384 52.12 100.976 52.12C103.472 52.12 105.696 52.664 107.648 53.752C109.6 54.84 111.12 56.376 112.208 58.36C113.296 60.312 113.84 62.568 113.84 65.128ZM108.128 63.4C108.096 61.384 107.376 59.768 105.968 58.552C104.56 57.336 102.816 56.728 100.736 56.728C98.848 56.728 97.232 57.336 95.888 58.552C94.544 59.736 93.744 61.352 93.488 63.4H108.128ZM117.401 65.656C117.401 63 117.945 60.648 119.033 58.6C120.153 56.552 121.657 54.968 123.545 53.848C125.465 52.696 127.577 52.12 129.881 52.12C131.961 52.12 133.769 52.536 135.305 53.368C136.873 54.168 138.121 55.176 139.049 56.392V52.552H144.569V79H139.049V75.064C138.121 76.312 136.857 77.352 135.257 78.184C133.657 79.016 131.833 79.432 129.785 79.432C127.513 79.432 125.433 78.856 123.545 77.704C121.657 76.52 120.153 74.888 119.033 72.808C117.945 70.696 117.401 68.312 117.401 65.656ZM139.049 65.752C139.049 63.928 138.665 62.344 137.897 61C137.161 59.656 136.185 58.632 134.969 57.928C133.753 57.224 132.441 56.872 131.033 56.872C129.625 56.872 128.313 57.224 127.097 57.928C125.881 58.6 124.889 59.608 124.121 60.952C123.385 62.264 123.017 63.832 123.017 65.656C123.017 67.48 123.385 69.08 124.121 70.456C124.889 71.832 125.881 72.888 127.097 73.624C128.345 74.328 129.657 74.68 131.033 74.68C132.441 74.68 133.753 74.328 134.969 73.624C136.185 72.92 137.161 71.896 137.897 70.552C138.665 69.176 139.049 67.576 139.049 65.752ZM161.356 79.432C159.276 79.432 157.404 79.064 155.74 78.328C154.108 77.56 152.812 76.536 151.852 75.256C150.892 73.944 150.38 72.488 150.316 70.888H155.98C156.076 72.008 156.604 72.952 157.564 73.72C158.556 74.456 159.788 74.824 161.26 74.824C162.796 74.824 163.98 74.536 164.812 73.96C165.676 73.352 166.108 72.584 166.108 71.656C166.108 70.664 165.628 69.928 164.668 69.448C163.74 68.968 162.252 68.44 160.204 67.864C158.22 67.32 156.604 66.792 155.356 66.28C154.108 65.768 153.02 64.984 152.092 63.928C151.196 62.872 150.748 61.48 150.748 59.752C150.748 58.344 151.164 57.064 151.996 55.912C152.828 54.728 154.012 53.8 155.548 53.128C157.116 52.456 158.908 52.12 160.924 52.12C163.932 52.12 166.348 52.888 168.172 54.424C170.028 55.928 171.02 57.992 171.148 60.616H165.676C165.58 59.432 165.1 58.488 164.236 57.784C163.372 57.08 162.204 56.728 160.732 56.728C159.292 56.728 158.188 57 157.42 57.544C156.652 58.088 156.268 58.808 156.268 59.704C156.268 60.408 156.524 61 157.036 61.48C157.548 61.96 158.172 62.344 158.908 62.632C159.644 62.888 160.732 63.224 162.172 63.64C164.092 64.152 165.66 64.68 166.876 65.224C168.124 65.736 169.196 66.504 170.092 67.528C170.988 68.552 171.452 69.912 171.484 71.608C171.484 73.112 171.068 74.456 170.236 75.64C169.404 76.824 168.22 77.752 166.684 78.424C165.18 79.096 163.404 79.432 161.356 79.432ZM201.205 52.552L184.981 91.432H179.317L184.693 78.568L174.277 52.552H180.373L187.813 72.712L195.541 52.552H201.205ZM210.806 43.48V79H205.334V43.48H210.806ZM242.231 65.128C242.231 66.12 242.167 67.016 242.039 67.816H221.831C221.991 69.928 222.775 71.624 224.183 72.904C225.591 74.184 227.319 74.824 229.367 74.824C232.311 74.824 234.391 73.592 235.607 71.128H241.511C240.711 73.56 239.255 75.56 237.143 77.128C235.063 78.664 232.471 79.432 229.367 79.432C226.839 79.432 224.567 78.872 222.551 77.752C220.567 76.6 218.999 75 217.847 72.952C216.727 70.872 216.167 68.472 216.167 65.752C216.167 63.032 216.711 60.648 217.799 58.6C218.919 56.52 220.471 54.92 222.455 53.8C224.471 52.68 226.775 52.12 229.367 52.12C231.863 52.12 234.087 52.664 236.039 53.752C237.991 54.84 239.511 56.376 240.599 58.36C241.687 60.312 242.231 62.568 242.231 65.128ZM236.519 63.4C236.487 61.384 235.767 59.768 234.359 58.552C232.951 57.336 231.207 56.728 229.127 56.728C227.239 56.728 225.623 57.336 224.279 58.552C222.935 59.736 222.135 61.352 221.879 63.4H236.519ZM260.96 52.12C263.04 52.12 264.896 52.552 266.528 53.416C268.192 54.28 269.488 55.56 270.416 57.256C271.344 58.952 271.808 61 271.808 63.4V79H266.384V64.216C266.384 61.848 265.792 60.04 264.608 58.792C263.424 57.512 261.808 56.872 259.76 56.872C257.712 56.872 256.08 57.512 254.864 58.792C253.68 60.04 253.088 61.848 253.088 64.216V79H247.616V52.552H253.088V55.576C253.984 54.488 255.12 53.64 256.496 53.032C257.904 52.424 259.392 52.12 260.96 52.12ZM276.964 65.656C276.964 63 277.508 60.648 278.596 58.6C279.716 56.552 281.22 54.968 283.108 53.848C285.028 52.696 287.156 52.12 289.492 52.12C291.22 52.12 292.916 52.504 294.58 53.272C296.276 54.008 297.62 55 298.612 56.248V43.48H304.132V79H298.612V75.016C297.716 76.296 296.468 77.352 294.868 78.184C293.3 79.016 291.492 79.432 289.444 79.432C287.14 79.432 285.028 78.856 283.108 77.704C281.22 76.52 279.716 74.888 278.596 72.808C277.508 70.696 276.964 68.312 276.964 65.656ZM298.612 65.752C298.612 63.928 298.228 62.344 297.46 61C296.724 59.656 295.748 58.632 294.532 57.928C293.316 57.224 292.004 56.872 290.596 56.872C289.188 56.872 287.876 57.224 286.66 57.928C285.444 58.6 284.452 59.608 283.684 60.952C282.948 62.264 282.58 63.832 282.58 65.656C282.58 67.48 282.948 69.08 283.684 70.456C284.452 71.832 285.444 72.888 286.66 73.624C287.908 74.328 289.22 74.68 290.596 74.68C292.004 74.68 293.316 74.328 294.532 73.624C295.748 72.92 296.724 71.896 297.46 70.552C298.228 69.176 298.612 67.576 298.612 65.752Z" fill="black"/>
<line x1="35.9999" y1="0.0147055" x2="34.9999" y2="136.015" stroke="black" stroke-width="4"/>
</svg>
