<svg width="137" height="117" viewBox="0 0 137 117" fill="none" xmlns="http://www.w3.org/2000/svg">
<path d="M136.5 58.5C136.5 90.4614 106.132 116.5 68.5 116.5C30.8677 116.5 0.5 90.4614 0.5 58.5C0.5 26.5386 30.8677 0.5 68.5 0.5C106.132 0.5 136.5 26.5386 136.5 58.5Z" fill="#FEF9EB" stroke="#D9CFCF"/>
<path fill-rule="evenodd" clip-rule="evenodd" d="M51.375 60C51.375 55.856 53.0212 51.8817 55.9515 48.9515C58.8817 46.0212 62.856 44.375 67 44.375C71.144 44.375 75.1183 46.0212 78.0485 48.9515C80.9788 51.8817 82.625 55.856 82.625 60C82.625 64.144 80.9788 68.1183 78.0485 71.0485C75.1183 73.9788 71.144 75.625 67 75.625C62.856 75.625 58.8817 73.9788 55.9515 71.0485C53.0212 68.1183 51.375 64.144 51.375 60ZM67 50.625C64.5136 50.625 62.129 51.6127 60.3709 53.3709C58.6127 55.129 57.625 57.5136 57.625 60C57.625 62.4864 58.6127 64.871 60.3709 66.6291C62.129 68.3873 64.5136 69.375 67 69.375C69.4864 69.375 71.871 68.3873 73.6291 66.6291C75.3873 64.871 76.375 62.4864 76.375 60C76.375 57.5136 75.3873 55.129 73.6291 53.3709C71.871 51.6127 69.4864 50.625 67 50.625Z" fill="#111111"/>
<path fill-rule="evenodd" clip-rule="evenodd" d="M35.0125 54.3583C33.2667 56.875 32.625 58.8458 32.625 60C32.625 61.1542 33.2667 63.125 35.0125 65.6417C36.7042 68.0708 39.2125 70.7083 42.3875 73.1458C48.75 78.0292 57.4708 81.875 67 81.875C76.5292 81.875 85.25 78.0292 91.6125 73.1458C94.7875 70.7083 97.2958 68.0708 98.9875 65.6417C100.733 63.125 101.375 61.1542 101.375 60C101.375 58.8458 100.733 56.875 98.9875 54.3583C97.2958 51.9292 94.7875 49.2917 91.6125 46.8542C85.25 41.9708 76.5292 38.125 67 38.125C57.4708 38.125 48.75 41.9708 42.3875 46.8542C39.2125 49.2917 36.7042 51.9292 35.0125 54.3583ZM38.5792 41.8958C45.7917 36.3625 55.8167 31.875 67 31.875C78.1833 31.875 88.2083 36.3625 95.4167 41.8958C99.0292 44.6667 102.012 47.7583 104.121 50.7958C106.171 53.75 107.625 56.9875 107.625 60C107.625 63.0125 106.167 66.25 104.121 69.2042C102.012 72.2417 99.0292 75.3292 95.4208 78.1042C88.2125 83.6375 78.1833 88.125 67 88.125C55.8167 88.125 45.7917 83.6375 38.5833 78.1042C34.9708 75.3333 31.9875 72.2417 29.8792 69.2042C27.8333 66.25 26.375 63.0125 26.375 60C26.375 56.9875 27.8333 53.75 29.8792 50.7958C31.9875 47.7583 34.9708 44.6708 38.5792 41.8958Z" fill="#111111"/>
</svg>
