<svg width="795" height="66" viewBox="0 0 795 66" fill="none" xmlns="http://www.w3.org/2000/svg">
<ellipse cx="33" cy="34" rx="33" ry="32" fill="#00E5C4"/>
<ellipse cx="407" cy="32" rx="33" ry="32" fill="#00E5C4"/>
<ellipse cx="762" cy="32" rx="33" ry="32" fill="#00E5C4"/>
<line x1="65.9897" y1="35.41" x2="761.991" y2="30.6238" stroke="#00E5C4" stroke-width="3"/>
<path d="M22.364 33.882C22.364 31.3593 22.7747 29.394 23.596 27.986C24.4173 26.5633 25.8547 25.852 27.908 25.852C29.9467 25.852 31.3767 26.5633 32.198 27.986C33.0193 29.394 33.43 31.3593 33.43 33.882C33.43 36.4487 33.0193 38.4433 32.198 39.866C31.3767 41.2887 29.9467 42 27.908 42C25.8547 42 24.4173 41.2887 23.596 39.866C22.7747 38.4433 22.364 36.4487 22.364 33.882ZM31.45 33.882C31.45 32.606 31.362 31.528 31.186 30.648C31.0247 29.7533 30.68 29.0347 30.152 28.492C29.6387 27.9493 28.8907 27.678 27.908 27.678C26.9107 27.678 26.148 27.9493 25.62 28.492C25.1067 29.0347 24.762 29.7533 24.586 30.648C24.4247 31.528 24.344 32.606 24.344 33.882C24.344 35.202 24.4247 36.3093 24.586 37.204C24.762 38.0987 25.1067 38.8173 25.62 39.36C26.148 39.9027 26.9107 40.174 27.908 40.174C28.8907 40.174 29.6387 39.9027 30.152 39.36C30.68 38.8173 31.0247 38.0987 31.186 37.204C31.362 36.3093 31.45 35.202 31.45 33.882ZM35.6505 27.92V26.094H39.7865V42H37.7625V27.92H35.6505Z" fill="white"/>
<path d="M393.364 32.882C393.364 30.3593 393.775 28.394 394.596 26.986C395.417 25.5633 396.855 24.852 398.908 24.852C400.947 24.852 402.377 25.5633 403.198 26.986C404.019 28.394 404.43 30.3593 404.43 32.882C404.43 35.4487 404.019 37.4433 403.198 38.866C402.377 40.2887 400.947 41 398.908 41C396.855 41 395.417 40.2887 394.596 38.866C393.775 37.4433 393.364 35.4487 393.364 32.882ZM402.45 32.882C402.45 31.606 402.362 30.528 402.186 29.648C402.025 28.7533 401.68 28.0347 401.152 27.492C400.639 26.9493 399.891 26.678 398.908 26.678C397.911 26.678 397.148 26.9493 396.62 27.492C396.107 28.0347 395.762 28.7533 395.586 29.648C395.425 30.528 395.344 31.606 395.344 32.882C395.344 34.202 395.425 35.3093 395.586 36.204C395.762 37.0987 396.107 37.8173 396.62 38.36C397.148 38.9027 397.911 39.174 398.908 39.174C399.891 39.174 400.639 38.9027 401.152 38.36C401.68 37.8173 402.025 37.0987 402.186 36.204C402.362 35.3093 402.45 34.202 402.45 32.882ZM406.936 39.394C408.799 37.898 410.258 36.6733 411.314 35.72C412.37 34.752 413.258 33.7473 413.976 32.706C414.71 31.65 415.076 30.616 415.076 29.604C415.076 28.6507 414.842 27.9027 414.372 27.36C413.918 26.8027 413.177 26.524 412.15 26.524C411.153 26.524 410.376 26.8393 409.818 27.47C409.276 28.086 408.982 28.9147 408.938 29.956H407.002C407.061 28.3133 407.56 27.0447 408.498 26.15C409.437 25.2553 410.647 24.808 412.128 24.808C413.639 24.808 414.834 25.226 415.714 26.062C416.609 26.898 417.056 28.0493 417.056 29.516C417.056 30.7333 416.69 31.9213 415.956 33.08C415.238 34.224 414.416 35.236 413.492 36.116C412.568 36.9813 411.388 37.9933 409.95 39.152H417.518V40.824H406.936V39.394Z" fill="white"/>
<path d="M750.364 31.882C750.364 29.3593 750.775 27.394 751.596 25.986C752.417 24.5633 753.855 23.852 755.908 23.852C757.947 23.852 759.377 24.5633 760.198 25.986C761.019 27.394 761.43 29.3593 761.43 31.882C761.43 34.4487 761.019 36.4433 760.198 37.866C759.377 39.2887 757.947 40 755.908 40C753.855 40 752.417 39.2887 751.596 37.866C750.775 36.4433 750.364 34.4487 750.364 31.882ZM759.45 31.882C759.45 30.606 759.362 29.528 759.186 28.648C759.025 27.7533 758.68 27.0347 758.152 26.492C757.639 25.9493 756.891 25.678 755.908 25.678C754.911 25.678 754.148 25.9493 753.62 26.492C753.107 27.0347 752.762 27.7533 752.586 28.648C752.425 29.528 752.344 30.606 752.344 31.882C752.344 33.202 752.425 34.3093 752.586 35.204C752.762 36.0987 753.107 36.8173 753.62 37.36C754.148 37.9027 754.911 38.174 755.908 38.174C756.891 38.174 757.639 37.9027 758.152 37.36C758.68 36.8173 759.025 36.0987 759.186 35.204C759.362 34.3093 759.45 33.202 759.45 31.882ZM764.134 28.098C764.237 26.7487 764.758 25.6927 765.696 24.93C766.635 24.1673 767.852 23.786 769.348 23.786C770.346 23.786 771.204 23.9693 771.922 24.336C772.656 24.688 773.206 25.172 773.572 25.788C773.954 26.404 774.144 27.1007 774.144 27.878C774.144 28.7873 773.88 29.572 773.352 30.232C772.839 30.892 772.164 31.3173 771.328 31.508V31.618C772.282 31.8527 773.037 32.3147 773.594 33.004C774.152 33.6933 774.43 34.5953 774.43 35.71C774.43 36.546 774.24 37.3013 773.858 37.976C773.477 38.636 772.905 39.1567 772.142 39.538C771.38 39.9193 770.463 40.11 769.392 40.11C767.838 40.11 766.562 39.7067 765.564 38.9C764.567 38.0787 764.01 36.92 763.892 35.424H765.828C765.931 36.304 766.29 37.0227 766.906 37.58C767.522 38.1373 768.344 38.416 769.37 38.416C770.397 38.416 771.174 38.152 771.702 37.624C772.245 37.0813 772.516 36.3847 772.516 35.534C772.516 34.434 772.15 33.642 771.416 33.158C770.683 32.674 769.576 32.432 768.094 32.432H767.588V30.76H768.116C769.466 30.7453 770.485 30.5253 771.174 30.1C771.864 29.66 772.208 28.9853 772.208 28.076C772.208 27.2987 771.952 26.6753 771.438 26.206C770.94 25.7367 770.221 25.502 769.282 25.502C768.373 25.502 767.64 25.7367 767.082 26.206C766.525 26.6753 766.195 27.306 766.092 28.098H764.134Z" fill="white"/>
</svg>
