<svg width="137" height="117" viewBox="0 0 137 117" fill="none" xmlns="http://www.w3.org/2000/svg">
<path d="M136.5 58.5C136.5 90.4614 106.132 116.5 68.5 116.5C30.8677 116.5 0.5 90.4614 0.5 58.5C0.5 26.5386 30.8677 0.5 68.5 0.5C106.132 0.5 136.5 26.5386 136.5 58.5Z" fill="#FEF9EB" stroke="#D9CFCF"/>
<path d="M69 29.5L69.8208 27.5833C69.5615 27.4721 69.2822 27.4148 69 27.4148C68.7178 27.4148 68.4385 27.4721 68.1792 27.5833L69 29.5ZM69 104.5L67.9667 106.308C68.2814 106.488 68.6376 106.583 69 106.583C69.3624 106.583 69.7186 106.488 70.0333 106.308L69 104.5ZM52.4333 95.0291L51.3958 96.8416L52.4292 95.0333L52.4333 95.0291ZM68.175 27.5833L41.5375 39L43.1792 42.8333L69.8208 31.4166L68.1792 27.5833H68.175ZM37.75 44.75V73.325H41.9167V44.75H37.75ZM51.3958 96.8416L67.9667 106.308L70.0333 102.692L53.4625 93.2208L51.3958 96.8416ZM70.0333 106.308L86.6042 96.8416L84.5375 93.2208L67.9667 102.692L70.0333 106.308ZM100.25 73.325V44.75H96.0833V73.3333H100.25V73.325ZM96.4583 39.0041L69.8208 27.5833L68.1792 31.4166L94.8208 42.8333L96.4625 39L96.4583 39.0041ZM100.25 44.75C100.249 43.5269 99.8894 42.3268 99.2154 41.3062C98.5414 40.2856 97.5828 39.4852 96.4583 39.0041L94.8208 42.8333C95.1958 42.9941 95.5154 43.2614 95.7398 43.6021C95.9642 43.9429 96.0837 44.342 96.0833 44.75H100.25ZM86.6042 96.8416C90.7498 94.4726 94.1955 91.0497 96.5919 86.9198C98.9883 82.7899 100.25 78.0998 100.25 73.325H96.0833C96.0832 77.3647 95.0152 81.3325 92.9876 84.8265C90.96 88.3205 88.0448 91.2164 84.5375 93.2208L86.6042 96.8416ZM37.75 73.325C37.7497 78.0998 39.0116 82.7899 41.4081 86.9198C43.8045 91.0497 47.2502 94.4726 51.3958 96.8416L53.4625 93.2208C49.9552 91.2164 47.04 88.3205 45.0124 84.8265C42.9848 81.3325 41.9168 77.3647 41.9167 73.325H37.75ZM41.5417 39.0041C40.4172 39.4852 39.4586 40.2856 38.7846 41.3062C38.1106 42.3268 37.7509 43.5269 37.75 44.75H41.9167C41.9167 43.9166 42.4167 43.1666 43.1792 42.8333L41.5417 39.0041Z" fill="#111111"/>
<path d="M52 66.2353L63.7692 80L86 54" stroke="#E4A951" stroke-width="6.66667" stroke-linecap="square"/>
</svg>
