<svg width="74" height="536" viewBox="0 0 74 536" fill="none" xmlns="http://www.w3.org/2000/svg">
<line x1="36.5" y1="42.9924" x2="37.5" y2="505.992" stroke="#00E5C4" stroke-width="7"/>
<path d="M72 34.5C72 52.3198 56.4641 67 37 67C17.5359 67 2 52.3198 2 34.5C2 16.6802 17.5359 2 37 2C56.4641 2 72 16.6802 72 34.5Z" fill="white" stroke="#CBCBCB" stroke-width="4"/>
<path d="M72 237.5C72 255.32 56.4641 270 37 270C17.5359 270 2 255.32 2 237.5C2 219.68 17.5359 205 37 205C56.4641 205 72 219.68 72 237.5Z" fill="white" stroke="#CBCBCB" stroke-width="4"/>
<path d="M72 501.5C72 519.32 56.4641 534 37 534C17.5359 534 2 519.32 2 501.5C2 483.68 17.5359 469 37 469C56.4641 469 72 483.68 72 501.5Z" fill="white" stroke="#CBCBCB" stroke-width="4"/>
<path d="M35.8415 495.016L30.5143 489.489L31.5879 488.413L35.8415 492.826L44.3863 484L45.4222 485.076L35.8415 495.016ZM37.4887 512L26.0228 508.532V510.558H20V497.821H29.5958L40.6748 502.026V504.551H48V508.635L37.4902 512H37.4887ZM21.5057 508.996H24.5171V499.383H21.5057V508.996ZM37.4134 510.343L46.4597 507.483V506.113H36.0387L31.362 504.532L31.8589 503.037L36.2646 504.551H39.1691V503.113L29.3579 499.383H26.0228V506.894L37.4134 510.343Z" fill="#111111"/>
<path d="M33.3333 238.104L29.2325 234.526L27 236.474L33.3333 242L46 230.948L43.7675 229L33.3333 238.104Z" fill="#111111"/>
<path d="M50.9091 219.393H46.2727V217.929C46.2703 217.153 45.9438 216.409 45.3647 215.86C44.7856 215.312 44.0008 215.002 43.1818 215H30.8182C29.9992 215.002 29.2144 215.312 28.6353 215.86C28.0562 216.409 27.7297 217.153 27.7273 217.929V219.393H23.0909C22.2719 219.395 21.4871 219.704 20.908 220.253C20.3289 220.802 20.0024 221.545 20 222.321V253.071C20.0024 253.847 20.3289 254.591 20.908 255.14C21.4871 255.688 22.2719 255.998 23.0909 256H37V253.071H23.0909V222.321H27.7273V226.714H46.2727V222.321H50.9091V238.429H54V222.321C53.9976 221.545 53.6711 220.802 53.092 220.253C52.5129 219.704 51.7281 219.395 50.9091 219.393ZM43.1818 223.786H30.8182V217.929H43.1818V223.786Z" fill="#111111"/>
<path d="M16 46.625C16 44.3044 16.9219 42.0788 18.5628 40.4378C20.2038 38.7969 22.4294 37.875 24.75 37.875H42.25C44.5706 37.875 46.7962 38.7969 48.4372 40.4378C50.0781 42.0788 51 44.3044 51 46.625C51 47.7853 50.5391 48.8981 49.7186 49.7186C48.8981 50.5391 47.7853 51 46.625 51H20.375C19.2147 51 18.1019 50.5391 17.2814 49.7186C16.4609 48.8981 16 47.7853 16 46.625Z" stroke="#111111" stroke-width="4.16667" stroke-linejoin="round"/>
<path d="M33.5 29.125C37.1244 29.125 40.0625 26.1869 40.0625 22.5625C40.0625 18.9381 37.1244 16 33.5 16C29.8756 16 26.9375 18.9381 26.9375 22.5625C26.9375 26.1869 29.8756 29.125 33.5 29.125Z" stroke="#111111" stroke-width="4.16667"/>
</svg>
