<svg width="448" height="413" viewBox="0 0 448 413" fill="none" xmlns="http://www.w3.org/2000/svg">
<path d="M48.4981 329.52C79.25 344.848 62.334 379.678 116.777 401.072C171.22 422.467 205.062 381.159 211.415 400.816C217.768 420.472 308.558 400.552 308.558 400.552C308.558 400.552 377.331 391.936 379.816 380.685C382.301 369.435 426.029 290.252 426.029 290.252C476.774 163.465 403.161 111.205 403.161 111.205C388.427 25.0196 355.296 26.0136 308.296 3.80761C217.021 37.5684 187.041 -42.8527 69.9158 112.101C29.6181 135.108 -2.29904 143.819 9.23126 190.102C18.0466 245.638 -27.7599 297.76 48.4981 329.52Z" stroke="url(#paint0_linear_328_2)" stroke-width="7"/>
<defs>
<linearGradient id="paint0_linear_328_2" x1="233.333" y1="1.32049" x2="220.272" y2="394.98" gradientUnits="userSpaceOnUse">
<stop stop-color="#01E3C4"/>
<stop offset="1" stop-color="#A1BEC0"/>
</linearGradient>
</defs>
</svg>
